<svg width="10" height="10" viewBox="0 0 10 10" fill="none" xmlns="http://www.w3.org/2000/svg">
<path d="M6.10138 4.99992L9.84024 1.26089C9.94309 1.15797 9.99984 1.02065 10 0.874228C10 0.727724 9.94325 0.590244 9.84024 0.48748L9.5126 0.159919C9.40959 0.0567482 9.27228 0.000244141 9.12569 0.000244141C8.97935 0.000244141 8.84203 0.0567482 8.73902 0.159919L5.00016 3.8987L1.26114 0.159919C1.15829 0.0567482 1.02089 0.000244141 0.87439 0.000244141C0.728049 0.000244141 0.59065 0.0567482 0.487805 0.159919L0.16 0.48748C-0.0533333 0.700813 -0.0533333 1.04781 0.16 1.26089L3.89894 4.99992L0.16 8.73878C0.0570732 8.84187 0.000406504 8.97919 0.000406504 9.12561C0.000406504 9.27203 0.0570732 9.40935 0.16 9.51236L0.487724 9.83992C0.590569 9.94301 0.728049 9.99959 0.874309 9.99959C1.02081 9.99959 1.15821 9.94301 1.26106 9.83992L5.00008 6.10106L8.73894 9.83992C8.84195 9.94301 8.97927 9.99959 9.12561 9.99959H9.12577C9.27219 9.99959 9.40951 9.94301 9.51252 9.83992L9.84016 9.51236C9.94301 9.40943 9.99976 9.27203 9.99976 9.12561C9.99976 8.97919 9.94301 8.84187 9.84016 8.73886L6.10138 4.99992Z" fill="white"/>
</svg>
