<svg width="84" height="84" viewBox="0 0 84 84" fill="none" xmlns="http://www.w3.org/2000/svg">
<path d="M41.9999 83.6668C18.9874 83.6668 0.333252 65.0127 0.333252 42.0002C0.333252 18.9877 18.9874 0.333496 41.9999 0.333496C65.0124 0.333496 83.6666 18.9877 83.6666 42.0002C83.6666 65.0127 65.0124 83.6668 41.9999 83.6668ZM46.1666 42.0002V22.1668C46.1666 21.6145 45.7189 21.1668 45.1666 21.1668H38.8332C38.281 21.1668 37.8333 21.6145 37.8333 22.1668V50.3335H61.8332C62.3855 50.3335 62.8332 49.8858 62.8332 49.3335V43.0002C62.8332 42.4479 62.3855 42.0002 61.8332 42.0002H46.1666Z" fill="#2170AC"/>
</svg>
