<svg width="66" height="53" viewBox="0 0 66 53" fill="none" xmlns="http://www.w3.org/2000/svg">
<path fill-rule="evenodd" clip-rule="evenodd" d="M2.13333 0H10.6667C11.8443 0 12.8 0.95214 12.8 2.12531C12.8 3.29849 11.8443 4.25063 10.6667 4.25063H4.26667V10.6266C4.26667 11.7997 3.31093 12.7519 2.13333 12.7519C0.955733 12.7519 0 11.7997 0 10.6266V2.12531C0 0.95214 0.955733 0 2.13333 0ZM61.7335 42.3734C61.7335 41.2002 62.6893 40.248 63.8669 40.248C65.0445 40.248 66.0002 41.2002 66.0002 42.3734V50.8746C66.0002 52.0478 65.0445 52.9999 63.8669 52.9999H55.3335C54.1559 52.9999 53.2002 52.0478 53.2002 50.8746C53.2002 49.7014 54.1559 48.7493 55.3335 48.7493H61.7335V42.3734ZM63.8669 0H55.3335C54.1559 0 53.2002 0.95214 53.2002 2.12531C53.2002 3.29849 54.1559 4.25063 55.3335 4.25063H61.7335V10.6266C61.7335 11.7997 62.6893 12.7519 63.8669 12.7519C65.0445 12.7519 66.0002 11.7997 66.0002 10.6266V2.12531C66.0002 0.95214 65.0445 0 63.8669 0ZM4.26667 48.7494H10.6667C11.8443 48.7494 12.8 49.7015 12.8 50.8747C12.8 52.0479 11.8443 53 10.6667 53H2.13333C0.955733 53 0 52.0479 0 50.8747V42.3734C0 41.2003 0.955733 40.2481 2.13333 40.2481C3.31093 40.2481 4.26667 41.2003 4.26667 42.3734V48.7494ZM51.4667 44.7998H14.4958C11.4641 44.7998 9 42.345 9 39.3247V14.438C9 11.4177 11.4641 8.96318 14.4958 8.96318H42.4865C43.3138 8.96318 43.9853 9.63212 43.9853 10.4564C43.9853 11.2806 43.3138 11.9496 42.4865 11.9496H14.4958C13.1189 11.9496 11.9977 13.0662 11.9977 14.438V39.3247C11.9977 40.6965 13.1189 41.8135 14.4958 41.8135H51.4667C52.8437 41.8135 53.9649 40.6965 53.9649 39.3247V14.438C53.9649 13.0662 52.8437 11.9496 51.4667 11.9496H47.4761C46.6487 11.9496 45.9772 11.2806 45.9772 10.4564C45.9772 9.63212 46.6487 8.96318 47.4761 8.96318H51.4667C54.4984 8.96318 56.9625 11.4177 56.9625 14.438V39.3247C56.9625 42.345 54.4984 44.7998 51.4667 44.7998ZM23.9882 28.8722C21.2342 28.8722 18.9922 26.6383 18.9922 23.895C18.9922 21.1514 21.2342 18.9175 23.9882 18.9175C26.7421 18.9175 28.9841 21.1514 28.9841 23.895C28.9841 26.6383 26.7421 28.8722 23.9882 28.8722ZM23.9886 21.9038C22.8875 21.9038 21.9902 22.7977 21.9902 23.895C21.9902 24.9919 22.8875 25.8858 23.9886 25.8858C25.0896 25.8858 25.9869 24.9919 25.9869 23.895C25.9869 22.7977 25.0896 21.9038 23.9886 21.9038ZM31.4822 38.827C30.6549 38.827 29.9834 38.158 29.9834 37.3338V36.3382C29.9834 34.9664 28.8622 33.8494 27.4852 33.8494H20.4909C19.114 33.8494 17.9928 34.9664 17.9928 36.3382V37.3338C17.9928 38.158 17.3213 38.827 16.4939 38.827C15.6666 38.827 14.9951 38.158 14.9951 37.3338V36.3382C14.9951 33.3179 17.4593 30.863 20.4909 30.863H27.4852C30.5169 30.863 32.9811 33.3179 32.9811 36.3382V37.3338C32.9811 38.158 32.3096 38.827 31.4822 38.827ZM38.4773 22.8995H49.4686C50.296 22.8995 50.9675 22.2305 50.9675 21.4063C50.9675 20.582 50.296 19.9131 49.4686 19.9131H38.4773C37.65 19.9131 36.9785 20.582 36.9785 21.4063C36.9785 22.2305 37.65 22.8995 38.4773 22.8995ZM49.4686 30.8631H38.4773C37.65 30.8631 36.9785 30.1941 36.9785 29.3699C36.9785 28.5457 37.65 27.8767 38.4773 27.8767H49.4686C50.296 27.8767 50.9675 28.5457 50.9675 29.3699C50.9675 30.1941 50.296 30.8631 49.4686 30.8631ZM38.4773 38.827H49.4686C50.296 38.827 50.9675 38.158 50.9675 37.3338C50.9675 36.5095 50.296 35.8406 49.4686 35.8406H38.4773C37.65 35.8406 36.9785 36.5095 36.9785 37.3338C36.9785 38.158 37.65 38.827 38.4773 38.827Z" fill="#2170AC"/>
</svg>
