<svg width="27" height="34" viewBox="0 0 27 34" fill="none" xmlns="http://www.w3.org/2000/svg">
<path d="M16.2484 15.4675C15.5481 14.687 14.8566 13.8148 14.2337 13.0301C13.94 12.6593 13.6591 12.3057 13.396 11.9845L13.3765 11.9611C13.7614 10.8649 13.9815 9.9678 14.0306 9.29398C14.1552 7.5777 13.9636 6.47208 13.4451 5.91486C13.0948 5.53784 12.5687 5.40646 12.0741 5.5729C11.7197 5.69156 11.2398 6.00989 10.9657 6.8504C10.557 8.10325 10.7551 10.3222 11.917 12.1575C11.3985 13.5155 10.6756 15.0757 9.87712 16.5614C8.3566 17.0945 7.14456 17.7953 6.27472 18.6456C5.1382 19.7549 4.67629 20.8561 5.00685 21.6659C5.21042 22.1676 5.6814 22.467 6.26615 22.467C6.67328 22.467 7.11365 22.32 7.54 22.0422C8.61623 21.3385 10.0212 18.9946 10.775 17.6364C12.3342 17.1496 13.874 16.9504 14.6563 16.8749C15.0102 16.8406 15.3618 16.8133 15.7001 16.7944C17.0696 18.2407 18.1897 19.0032 19.2216 19.1936C19.4293 19.2323 19.637 19.2517 19.8398 19.2517C20.6808 19.2517 21.3756 18.9163 21.6999 18.3547C21.9445 17.9304 21.9396 17.4352 21.6862 16.9959C21.1136 16.0046 19.3857 15.459 16.8205 15.459C16.6362 15.459 16.4456 15.4616 16.2483 15.4676L16.2484 15.4675ZM6.82608 20.9513C6.62252 21.0843 6.41324 21.1635 6.26575 21.1635C6.23771 21.1635 6.21876 21.1606 6.20811 21.1577C6.1824 21.0279 6.27484 20.466 7.1849 19.577C7.61229 19.1595 8.15266 18.778 8.79271 18.441C7.98521 19.74 7.25869 20.6688 6.82609 20.9514L6.82608 20.9513ZM12.2037 7.25495C12.2988 6.96414 12.4164 6.83275 12.4896 6.80835C12.4914 6.80809 12.493 6.80731 12.4945 6.80679C12.5652 6.8865 12.8661 7.34167 12.7313 9.20054C12.708 9.52485 12.629 9.93458 12.4961 10.4214C12.0612 9.30205 11.9417 8.05804 12.2037 7.25494L12.2037 7.25495ZM14.5308 15.5785C13.8377 15.6452 12.782 15.7825 11.6042 16.0612C12.061 15.1492 12.4839 14.2249 12.8371 13.3683C12.9596 13.5217 13.085 13.6791 13.2123 13.8403C13.6384 14.3775 14.1171 14.9812 14.6133 15.5709L14.5308 15.5785ZM20.5568 17.6474C20.5762 17.6809 20.5757 17.6944 20.5708 17.7032C20.516 17.7982 20.2685 17.9488 19.8378 17.9488C19.7176 17.9488 19.5896 17.9366 19.4574 17.912C18.9199 17.8125 18.2931 17.441 17.5458 16.7786C19.5735 16.8754 20.3927 17.3641 20.5568 17.6473L20.5568 17.6474Z" fill="#2170AC"/>
<path d="M19.0095 0.249023H2.15446C1.12157 0.249023 0.282104 1.08616 0.282104 2.12165V31.8774C0.282104 32.9118 1.12157 33.7501 2.15446 33.7501H24.6277C25.6629 33.7501 26.5 32.9119 26.5 31.8774V7.73978L19.0095 0.249023ZM19.0095 2.8967L23.8528 7.73998H19.0095V2.8967ZM24.6281 31.8781H2.15493V2.12165H17.1368V7.73978C17.1368 8.77421 17.9745 9.61241 19.0092 9.61241H24.6278V31.8776L24.6281 31.8781Z" fill="#2170AC"/>
<path d="M10.297 24.2048C10.144 24.0698 9.96044 23.9714 9.75194 23.9137C9.54604 23.8548 9.25134 23.8252 8.87559 23.8252H7.62899C7.39193 23.8252 7.21329 23.8795 7.09748 23.9877C6.98064 24.097 6.92065 24.2744 6.92065 24.5138V28.211C6.92065 28.4262 6.97388 28.5937 7.07878 28.7098C7.1855 28.829 7.32779 28.8895 7.50124 28.8895C7.66716 28.8895 7.80711 28.8287 7.91668 28.709C8.02392 28.5914 8.07871 28.4216 8.07871 28.2045V26.94H8.87556C9.49094 26.94 9.9635 26.8055 10.2798 26.5402C10.6015 26.2714 10.7648 25.8739 10.7648 25.3582C10.7648 25.1181 10.7253 24.8986 10.6469 24.7049C10.568 24.5092 10.4504 24.3412 10.2969 24.2049L10.297 24.2048ZM9.49152 25.7508C9.42194 25.8445 9.32249 25.9105 9.18695 25.9528C9.04284 25.9975 8.85927 26.0206 8.64038 26.0206H8.07927V24.7407H8.64064C9.14645 24.7407 9.35155 24.8417 9.43311 24.9238C9.5419 25.0399 9.59461 25.1884 9.59461 25.3771C9.59461 25.5329 9.55982 25.6586 9.49153 25.7508L9.49152 25.7508Z" fill="#2170AC"/>
<path d="M14.9021 24.2825C14.7001 24.1057 14.4714 23.9831 14.2229 23.9187C13.9809 23.8562 13.6875 23.8242 13.3522 23.8242H12.0862C11.852 23.8242 11.677 23.8803 11.5658 23.9922C11.4544 24.1039 11.3978 24.2789 11.3978 24.5126V28.0295C11.3978 28.1944 11.4124 28.3266 11.4422 28.4328C11.476 28.5533 11.5489 28.6475 11.6588 28.7127C11.7634 28.776 11.9101 28.8064 12.1059 28.8064H13.372C13.5961 28.8064 13.8009 28.7919 13.9806 28.7628C14.1637 28.7329 14.3376 28.681 14.4968 28.6083C14.6575 28.5351 14.8073 28.4359 14.9431 28.3139C15.1132 28.1575 15.255 27.9776 15.3645 27.7785C15.4728 27.5801 15.5544 27.355 15.6058 27.1098C15.6572 26.867 15.6831 26.5949 15.6831 26.3021C15.6826 25.406 15.4196 24.7262 14.9021 24.2825L14.9021 24.2825ZM14.056 27.6465C13.9931 27.7013 13.9176 27.7452 13.8311 27.7761C13.7407 27.808 13.6527 27.8286 13.5691 27.8364C13.4808 27.8447 13.3562 27.8491 13.1983 27.8491H12.5552V24.7794H13.1036C13.3905 24.7794 13.6366 24.8106 13.8353 24.8721C14.0209 24.9287 14.1811 25.0661 14.311 25.2813C14.4442 25.5013 14.5119 25.8427 14.5119 26.2964C14.5122 26.9364 14.359 27.39 14.056 27.6465L14.056 27.6465Z" fill="#2170AC"/>
<path d="M19.3098 23.8252H17.0197C16.867 23.8252 16.7434 23.8478 16.6421 23.8945C16.5338 23.9436 16.4531 24.0236 16.4017 24.1329C16.3539 24.2349 16.3311 24.3596 16.3311 24.5141V28.2045C16.3311 28.4268 16.3853 28.5976 16.4915 28.7122C16.5998 28.8298 16.7413 28.8898 16.9119 28.8898C17.0791 28.8898 17.2193 28.8308 17.3289 28.7145C17.4354 28.5995 17.4894 28.4278 17.4894 28.2045V26.7175H18.9961C19.1647 26.7175 19.2968 26.677 19.3882 26.5962C19.4832 26.5124 19.5313 26.4 19.5313 26.2616C19.5313 26.1234 19.4843 26.0107 19.3913 25.9266C19.301 25.844 19.168 25.8022 18.9964 25.8022H17.4896V24.7616H19.3106C19.489 24.7616 19.6263 24.7187 19.719 24.6338C19.8141 24.5473 19.8621 24.4323 19.8621 24.2921C19.8621 24.1547 19.8141 24.0408 19.7188 23.953C19.6243 23.8676 19.4874 23.8252 19.3098 23.8252L19.3098 23.8252Z" fill="#2170AC"/>
</svg>
