<svg width="314" height="192" viewBox="0 0 314 192" fill="none" xmlns="http://www.w3.org/2000/svg">
<rect x="0.5" y="0.5" width="313" height="191" rx="15.5" fill="white" stroke="#A7AEB4" stroke-linejoin="round"/>
<path fill-rule="evenodd" clip-rule="evenodd" d="M245.166 107.274C240.539 112.76 229.434 132.68 233.721 137.727C238.637 136.008 242.325 127.281 245.423 119.951C247.058 116.083 248.528 112.605 249.927 110.75C261.536 108.931 292.543 92.3933 290.441 77.4369C284.608 69.8762 268.417 82.635 263.778 87.367C263.041 87.6357 262.508 87.4438 261.981 87.254C261.502 87.0819 261.028 86.9114 260.411 87.0881C259.512 88.1137 258.431 89.4952 257.225 91.0371C252.916 96.5448 247.006 104.1 242.029 104.799C240.792 100.484 252.918 87.8264 255.68 85.3679L255.824 85.3293C259.287 84.4036 280.42 78.7546 273.495 75.6764C271.258 78.9729 255.311 85.1997 259.568 80.4266C259.17 75.3665 253.476 82.4117 252.418 83.8166C241.828 87.2227 242.569 85.9492 244.073 83.366C244.833 82.0597 245.788 80.4185 245.572 78.878C242.905 77.815 241.498 79.8714 240.1 81.9154C239.18 83.2619 238.262 84.603 236.991 85.0434C230.087 84.162 228.421 86.1533 235.636 87.2421C235.644 87.2994 232.898 91.8067 230.667 95.4679C229.288 97.7315 228.106 99.6718 227.894 100.037C227.762 100.142 227.502 100.364 227.138 100.676L227.137 100.677V100.677C223.523 103.772 209.656 115.648 208.658 108.546C209.316 107.871 210.136 107.063 211.061 106.151V106.151L211.062 106.15V106.15C216.961 100.335 227.131 90.3089 226.849 83.6743C223.753 77.9589 212.882 90.5982 212.784 92.5875C210.433 95.1473 209.103 98.4802 207.795 101.757C205.531 107.431 203.333 112.936 196.016 113.964C194.369 111.842 203.723 95.9964 205.636 95.5384C208.05 96.1071 207.452 95.3715 206.807 94.5772C206.515 94.2184 206.214 93.8476 206.176 93.5798C215.274 81.5031 241.324 36.3821 210.111 36.7197C200.509 38.0692 186.158 43.6001 179.59 50.2363C176.352 51.1007 163.755 63.2908 165.162 64.5988C175.544 53.159 203.456 31.3463 220.067 40.5621C224.144 45.0207 223.339 49.7338 222.394 55.2717L222.393 55.2751L222.392 55.2812C222.289 55.8882 222.183 56.5051 222.083 57.1326C217.568 70.5719 210.595 88.8462 198.539 96.6288C192.922 101.781 188.467 107.146 185.154 114.391C183.269 115.69 181.534 117.057 179.835 118.395C174.827 122.34 170.124 126.044 162.77 127.078C151.966 123.448 162.705 103.61 167.132 99.3789C167.609 98.6308 168.44 97.6022 169.365 96.4565C172.575 92.4807 176.924 87.0956 171.593 87.1381C167.23 91.1789 164.379 96.4032 161.488 101.701C157.92 108.239 154.291 114.889 147.684 119.563C144.495 119.621 152.941 103.063 155.343 98.3542V98.3541V98.3539L155.344 98.3536V98.3534L155.345 98.3511L155.347 98.3471C155.654 97.7455 155.861 97.3385 155.933 97.186C156.481 96.3042 157.883 94.3828 159.566 92.0759L159.567 92.0754V92.0751C163.463 86.7352 168.866 79.3307 168.676 77.9767C163.797 75.429 143.66 112.595 144.716 120.104C147.197 124.925 150.649 120.162 153.134 116.734C155.538 113.418 157.036 111.352 155.872 120.42C158.48 138.979 178.808 122.377 185.474 116.668C185.856 116.614 186.198 116.569 186.508 116.527C187.761 116.361 188.478 116.265 189.122 115.994C189.985 115.63 190.715 114.95 192.423 113.36L192.425 113.358C192.654 113.145 192.9 112.915 193.167 112.668C194.602 118.866 199.437 115.397 203.23 112.676C204.701 111.62 206.016 110.677 206.915 110.454C212.343 115.812 219.855 109.676 225.037 105.443L225.038 105.443L225.039 105.441C225.701 104.9 226.326 104.391 226.902 103.94C227.33 111.673 232.831 107.39 236.8 104.3L236.801 104.3V104.3C238.123 103.27 239.275 102.374 240.013 102.097C238.889 106.704 241.198 106.62 243.081 106.551C244.134 106.513 245.054 106.479 245.166 107.274ZM247.774 110.423C245.545 103.486 235.53 129.813 235.05 133.773C239.428 128.22 242.439 121.772 245.375 115.485V115.485C246.172 113.779 246.963 112.084 247.774 110.423ZM250.988 108.715C252.456 97.0532 275.686 75.4273 287.379 77.332C291.256 79.5583 285.056 86.7945 282.38 89.9184L282.379 89.9188L282.375 89.924L282.373 89.9255L282.372 89.9274L282.371 89.9283C282.081 90.2669 281.833 90.5568 281.644 90.7863C280.834 91.4089 280.009 92.0494 279.17 92.7011L279.167 92.7036C270.844 99.1662 261.113 106.723 250.988 108.715ZM249.644 104.383C248.702 105.358 247.299 106.811 248.351 107.832C249.168 106.932 250.284 104.831 250.145 103.845C250.015 103.999 249.84 104.181 249.644 104.383ZM229.523 106.303C228.632 101.642 233.901 95.8825 237.982 91.4211V91.4209L237.983 91.4203C239.307 89.9727 240.507 88.6617 241.33 87.5693C242.667 87.4219 243.903 87.2429 244.992 87.0853C249.816 86.3868 251.727 86.1102 246.535 90.8852C243.209 96.2501 235.687 104.369 229.523 106.303ZM209.192 104.547C207.443 101.495 220.374 84.5192 224.587 84.335C225.664 88.2032 212.454 102.08 209.192 104.547ZM193.63 105.479C193.848 103.91 196.738 101.245 194.998 104.502C194.542 104.816 194.082 105.132 193.63 105.479ZM238.732 87.8413C237.978 86.7222 235.909 90.5286 235.81 91.3892L236.476 90.58C237.237 89.6568 237.984 88.7491 238.732 87.8413ZM30.2388 145.922C36.0207 135.256 20.5856 148.033 32.1934 152.238C41.9541 150.571 48.769 143.328 55.4525 136.224H55.4526C58.6961 132.777 61.9086 129.363 65.412 126.634C65.3256 126.02 75.493 115.739 77.1139 114.539C77.2737 113.889 86.4532 103.277 87.7824 102.682C95.5826 94.0848 103.358 84.2054 109.986 74.6422C123.858 47.3964 89.072 61.1665 79.8363 69.3701C76.4614 70.2269 73.3459 73.6211 70.4849 76.7381C68.1836 79.2453 66.0469 81.5732 64.0724 82.2565C57.3182 86.909 27.5514 120.312 53.8941 116.138C53.8497 116.336 53.824 116.531 53.8001 116.712C53.7926 116.769 53.7853 116.824 53.7777 116.877C51.1562 121.452 41.4029 140.493 42.3367 145.571C42.2206 145.644 42.0913 145.726 41.9501 145.816L41.9485 145.817C38.5831 147.955 28.5033 154.358 30.2388 145.922ZM61.9863 112.774C55.0623 113.747 43.5475 140.349 44.5682 143.595C45.7447 142.828 46.7606 141.769 47.7737 140.714C49.1373 139.293 50.4957 137.878 52.2338 137.185C56.142 133.207 59.9088 129.217 63.6623 125.242L63.6624 125.241C68.9806 119.608 74.2723 114.003 79.902 108.501C80.0788 107.276 82.5255 105.065 84.3829 103.386C85.5385 102.342 86.4661 101.504 86.4768 101.237C91.8581 95.3016 97.7894 88.3796 102.205 81.8274C104.513 81.5029 111.152 67.3247 111.842 64.8737C109.79 50.2713 81.1581 70.4053 76.0271 74.0134C75.8151 74.1625 75.6431 74.2834 75.5149 74.3725C75.3454 74.5224 75.1218 74.7184 74.8495 74.957C68.8871 80.1835 39.6251 105.833 46.0405 114.325C52.8889 118.152 56.9406 111.616 60.3451 106.125C61.7152 103.915 62.9805 101.873 64.2812 100.745C66.4878 101.223 63.8655 104.69 61.6873 107.57C58.4027 111.913 56.128 114.921 72.9452 104.33C78.4893 101.572 91.8625 97.12 75.7096 104.568C73.5874 106.209 71.1283 107.492 68.7045 108.756C66.3114 110.005 63.9526 111.235 61.9863 112.774ZM107.184 133.54C103.027 132.589 102.507 131.037 102.21 130.148C101.85 129.074 101.815 128.967 96.0844 132.056C92.5137 132.558 92.2948 132.556 90.4637 130.021C87.8719 133.46 84.7487 134.465 83.858 129.915C82.9646 130.25 81.7981 131.387 80.5674 132.586C77.5695 135.508 74.1908 138.801 73.45 131.785C72.8694 132.007 71.9864 133.138 70.9842 134.421C68.8517 137.152 66.1791 140.574 64.7303 137.404C64.0212 132.358 76.0899 111.265 80.6879 116.959C81.3136 121.41 80.6336 122.54 79.28 124.789C78.4903 126.101 77.4714 127.794 76.3486 130.75C74.733 136.298 78.076 132.114 82.0201 127.177C86.2418 121.893 91.1522 115.747 91.4072 119.752C86.4257 127.639 83.5427 135.263 92.4042 123.503C92.4164 123.482 92.4365 123.447 92.464 123.398C93.0655 122.338 97.1727 115.102 97.5766 120.329C86.3657 137.032 100.867 128.779 103.264 120.597C105.485 115.859 111.478 103.341 117.276 105.288C119.933 108.926 107.023 122.677 104.216 125.667L104.144 125.744C101.905 139.963 120.628 123.114 124.112 117.76C125.774 112.159 142.104 80.7373 150.539 84.4802C151.316 90.0091 136.966 106.875 129.495 115.655L129.493 115.658L129.491 115.66C128.231 117.142 127.166 118.393 126.403 119.32C122.896 127.821 135.187 124.52 141.122 122.926C142.911 122.445 144.122 122.12 144.15 122.319C143.652 122.553 143.137 122.801 142.61 123.055L142.606 123.057L142.605 123.057L142.604 123.058C136.082 126.196 127.558 130.297 123.592 122.321C123.03 122.841 122.481 123.356 121.94 123.863V123.863C117.399 128.122 113.423 131.85 107.184 133.54ZM67.613 134.927C68.2699 129.781 73.9541 121.763 78.1688 118.472C79.8532 119.743 69.3272 132.834 67.613 134.927ZM106.455 119.426C106.76 116.903 114.033 106.56 115.168 107.718C112.622 111.936 109.901 116.023 106.455 119.426ZM127.766 114.736C129.949 107.272 140.375 90.5536 147.357 87.3128C147.688 89.6703 138.904 100.653 132.854 108.218V108.218C130.533 111.12 128.614 113.52 127.766 114.736Z" fill="#0D2D44"/>
</svg>
