<svg width="16" height="16" viewBox="0 0 16 16" fill="none" xmlns="http://www.w3.org/2000/svg">
<path d="M12.917 8.27722L5.85101 12.9879C5.80081 13.0213 5.74249 13.0404 5.68227 13.0433C5.62204 13.0462 5.56216 13.0327 5.50901 13.0042C5.45585 12.9758 5.41141 12.9334 5.38042 12.8817C5.34942 12.83 5.33304 12.7708 5.33301 12.7105V3.28922C5.33304 3.22892 5.34942 3.16976 5.38042 3.11804C5.41141 3.06633 5.45585 3.02398 5.50901 2.99552C5.56216 2.96706 5.62204 2.95355 5.68227 2.95644C5.74249 2.95932 5.80081 2.97848 5.85101 3.01188L12.917 7.72255C12.9627 7.75299 13.0001 7.79423 13.026 7.84261C13.0519 7.89099 13.0654 7.94501 13.0654 7.99988C13.0654 8.05475 13.0519 8.10878 13.026 8.15715C13.0001 8.20553 12.9627 8.24678 12.917 8.27722Z" fill="#27B98D"/>
</svg>
