<svg width="32" height="32" viewBox="0 0 32 32" fill="none" xmlns="http://www.w3.org/2000/svg">
<path d="M15.9997 16.7299C19.6319 16.7299 22.5766 13.2834 22.5766 9.03193C22.5766 3.13629 19.632 1.33398 15.9997 1.33398C12.3673 1.33398 9.42285 3.13629 9.42285 9.03193C9.42292 13.2834 12.3674 16.7299 15.9997 16.7299Z" fill="#2170AC"/>
<path d="M30.5229 28.0596L27.2048 20.5849C27.053 20.2429 26.7864 19.9592 26.4545 19.7864L21.305 17.1058C21.1914 17.0468 21.0539 17.0582 20.9518 17.1355C19.4954 18.2371 17.7829 18.8194 15.9997 18.8194C14.2163 18.8194 12.504 18.2371 11.0475 17.1355C10.9451 17.0582 10.8076 17.0468 10.6941 17.1058L5.54487 19.7864C5.21287 19.9592 4.94654 20.2427 4.79463 20.5849L1.4765 28.0596C1.24774 28.5749 1.29462 29.1645 1.60196 29.6372C1.90916 30.1097 2.42906 30.3918 2.99276 30.3918H29.0065C29.5702 30.3918 30.0902 30.1096 30.3974 29.6371C30.7046 29.1645 30.7517 28.5747 30.5229 28.0596Z" fill="#2170AC"/>
</svg>
