<svg width="16" height="16" viewBox="0 0 16 16" fill="none" xmlns="http://www.w3.org/2000/svg">
<path d="M7.87929 2.66666C11.474 2.66666 14.4646 4.96592 15.092 7.99999C14.4653 11.0341 11.474 13.3333 7.87929 13.3333C4.28463 13.3333 1.29396 11.0341 0.666626 7.99999C1.29329 4.96592 4.28463 2.66666 7.87929 2.66666ZM7.87929 12.1481C9.23894 12.1479 10.5582 11.7374 11.6212 10.9838C12.6842 10.2302 13.4279 9.17822 13.7306 7.99999C13.4268 6.82269 12.6826 5.77184 11.6197 5.01926C10.5568 4.26668 9.23816 3.8569 7.87929 3.8569C6.52042 3.8569 5.20175 4.26668 4.13888 5.01926C3.076 5.77184 2.3318 6.82269 2.02796 7.99999C2.33069 9.17822 3.07441 10.2302 4.13739 10.9838C5.20037 11.7374 6.51965 12.1479 7.87929 12.1481ZM7.87929 10.6667C7.08364 10.6667 6.32058 10.3857 5.75797 9.88561C5.19536 9.38551 4.87929 8.70723 4.87929 7.99999C4.87929 7.29274 5.19536 6.61447 5.75797 6.11437C6.32058 5.61427 7.08364 5.33332 7.87929 5.33332C8.67494 5.33332 9.438 5.61427 10.0006 6.11437C10.5632 6.61447 10.8793 7.29274 10.8793 7.99999C10.8793 8.70723 10.5632 9.38551 10.0006 9.88561C9.438 10.3857 8.67494 10.6667 7.87929 10.6667ZM7.87929 9.48147C8.32132 9.48147 8.74524 9.32539 9.0578 9.04755C9.37036 8.76972 9.54596 8.3929 9.54596 7.99999C9.54596 7.60708 9.37036 7.23025 9.0578 6.95242C8.74524 6.67459 8.32132 6.51851 7.87929 6.51851C7.43726 6.51851 7.01334 6.67459 6.70078 6.95242C6.38822 7.23025 6.21263 7.60708 6.21263 7.99999C6.21263 8.3929 6.38822 8.76972 6.70078 9.04755C7.01334 9.32539 7.43726 9.48147 7.87929 9.48147Z" fill="#17C373"/>
</svg>
